<svg fill="none" viewBox="0 0 36 36" version="1.1" id="prefix__prefix__svg15" xmlns:xlink="http://www.w3.org/1999/xlink" xmlns="http://www.w3.org/2000/svg"><defs id="prefix__prefix__defs11"><linearGradient id="prefix__prefix__gradient" x1="16" x2="16" y1="32" y2="24" gradientUnits="userSpaceOnUse"><stop stop-color="#000" id="prefix__prefix__stop6"/><stop offset="1" stop-color="#000" stop-opacity="0" id="prefix__prefix__stop8"/></linearGradient><linearGradient xlink:href="#prefix__prefix__linearGradient2360" id="prefix__prefix__linearGradient2362" x1="916.973" y1="1249.995" x2="1709.106" y2="1249.995" gradientUnits="userSpaceOnUse"/><linearGradient id="prefix__prefix__linearGradient2360"><stop offset="0" id="prefix__prefix__stop2358" stop-color="#000" stop-opacity="1"/></linearGradient><linearGradient xlink:href="#prefix__prefix__linearGradient2366" id="prefix__prefix__linearGradient2368" x1="916.973" y1="1249.995" x2="1709.106" y2="1249.995" gradientUnits="userSpaceOnUse"/><linearGradient id="prefix__prefix__linearGradient2366"><stop offset="0" id="prefix__prefix__stop2364" stop-color="#fff" stop-opacity="1"/></linearGradient><linearGradient xlink:href="#prefix__prefix__linearGradient2360" id="prefix__prefix__linearGradient4013" gradientUnits="userSpaceOnUse" x1="916.973" y1="1249.995" x2="1709.106" y2="1249.995"/><linearGradient xlink:href="#prefix__prefix__linearGradient2366" id="prefix__prefix__linearGradient4015" gradientUnits="userSpaceOnUse" x1="916.973" y1="1249.995" x2="1709.106" y2="1249.995"/><linearGradient xlink:href="#prefix__prefix__linearGradient2360" id="prefix__prefix__linearGradient4017" gradientUnits="userSpaceOnUse" x1="916.973" y1="1249.995" x2="1709.106" y2="1249.995"/><linearGradient xlink:href="#prefix__prefix__linearGradient2366" id="prefix__prefix__linearGradient4019" gradientUnits="userSpaceOnUse" x1="916.973" y1="1249.995" x2="1709.106" y2="1249.995"/></defs><style id="style13">@media (prefers-color-scheme:dark){:root{filter:invert(100%)}}</style><g id="prefix__prefix__Major-O" transform="matrix(.02408 0 0 .02406 -13.618 -12.073)" clip-rule="evenodd" fill="url(#prefix__prefix__linearGradient2362)" fill-opacity="1" fill-rule="evenodd" stroke="url(#prefix__prefix__linearGradient2368)" stroke-width="65" stroke-linejoin="round" stroke-miterlimit="2" stroke-dasharray="none" paint-order="stroke markers fill"><path d="M1313.04 1946.7s396.066-698.14 396.066-997.343c0-218.595-177.471-396.067-396.066-396.067-218.595 0-396.067 177.472-396.067 396.067 0 299.203 396.067 997.343 396.067 997.343zm0-1165.91c117.73 0 213.311 95.581 213.311 213.311s-95.581 213.312-213.311 213.312-213.312-95.582-213.312-213.312c0-117.73 95.582-213.311 213.312-213.311z" id="prefix__prefix__path2" fill="url(#prefix__prefix__linearGradient4013)" stroke="url(#prefix__prefix__linearGradient4015)"/><circle cx="1313.04" cy="994.104" r="159.984" id="prefix__prefix__circle4" fill="url(#prefix__prefix__linearGradient4017)" stroke="url(#prefix__prefix__linearGradient4019)"/></g></svg>