<?xml version="1.0" encoding="UTF-8" standalone="no"?><!DOCTYPE svg PUBLIC "-//W3C//DTD SVG 1.1//EN" "http://www.w3.org/Graphics/SVG/1.1/DTD/svg11.dtd"><svg width="100%" height="100%" viewBox="0 0 6667 2500" version="1.1" xmlns="http://www.w3.org/2000/svg" xmlns:xlink="http://www.w3.org/1999/xlink" xml:space="preserve" xmlns:serif="http://www.serif.com/" style="fill-rule:evenodd;clip-rule:evenodd;stroke-linejoin:round;stroke-miterlimit:2;"><g id="Major-O" serif:id="Major O"><path d="M1313.04,1946.7c-0,-0 396.066,-698.14 396.066,-997.343c0,-218.595 -177.471,-396.067 -396.066,-396.067c-218.595,0 -396.067,177.472 -396.067,396.067c0,299.203 396.067,997.343 396.067,997.343Zm-0,-1165.91c117.73,-0 213.311,95.581 213.311,213.311c0,117.73 -95.581,213.312 -213.311,213.312c-117.73,-0 -213.312,-95.582 -213.312,-213.312c0,-117.73 95.582,-213.311 213.312,-213.311Z"/><circle cx="1313.04" cy="994.104" r="159.984"/></g><g id="Letter-D" serif:id="Letter D"><path d="M2065.48,780.793c117.73,-0 213.312,95.581 213.312,213.311c-0,117.73 -95.582,213.312 -213.312,213.312c-117.73,-0 -213.311,-95.582 -213.311,-213.312c-0,-117.73 95.581,-213.311 213.311,-213.311Zm0,53.327c88.297,0 159.984,71.687 159.984,159.984c-0,88.297 -71.687,159.984 -159.984,159.984c-88.297,-0 -159.984,-71.687 -159.984,-159.984c0,-88.297 71.687,-159.984 159.984,-159.984Z"/><rect x="2225.45" y="632.295" width="53.329" height="363.389"/></g><path id="Letter-O" serif:id="Letter O" d="M2827.64,780.793c117.73,-0 213.312,95.581 213.312,213.311c-0,117.73 -95.582,213.312 -213.312,213.312c-117.729,-0 -213.311,-95.582 -213.311,-213.312c-0,-117.73 95.582,-213.311 213.311,-213.311Zm0,53.327c88.298,0 159.984,71.687 159.984,159.984c-0,88.297 -71.686,159.984 -159.984,159.984c-88.297,-0 -159.983,-71.687 -159.983,-159.984c-0,-88.297 71.686,-159.984 159.983,-159.984Z"/><g id="Letter-E-1" serif:id="Letter E 1"><rect x="3415.12" y="962.465" width="384.244" height="53.191"/><path d="M3794.93,1060.91c-28.042,85.049 -108.205,146.507 -202.608,146.507c-117.73,-0 -213.311,-95.582 -213.311,-213.312c-0,-117.73 95.581,-213.311 213.311,-213.311c117.73,-0 213.312,95.581 213.312,213.311l-1.103,21.546l-53.67,-0l1.445,-21.546c-0,-88.297 -71.686,-159.984 -159.984,-159.984c-88.297,0 -159.983,71.687 -159.983,159.984c-0,88.297 71.686,159.984 159.983,159.984c64.451,-0 120.052,-38.195 145.345,-93.179l57.263,0Z"/></g><g id="Letter-E-2" serif:id="Letter E 2"><rect x="4870.2" y="962.465" width="384.244" height="53.191"/><path d="M5250.01,1060.91c-28.043,85.049 -108.205,146.507 -202.608,146.507c-117.73,-0 -213.311,-95.582 -213.311,-213.312c-0,-117.73 95.581,-213.311 213.311,-213.311c117.73,-0 213.312,95.581 213.312,213.311l-1.104,21.546l-53.669,-0l1.445,-21.546c-0,-88.297 -71.687,-159.984 -159.984,-159.984c-88.297,0 -159.983,71.687 -159.983,159.984c-0,88.297 71.686,159.984 159.983,159.984c64.451,-0 120.052,-38.195 145.345,-93.179l57.263,0Z"/></g><g id="letter-N-edit" serif:id="letter N edit"><path d="M4453.46,948.703c-1.226,-75.129 -62.638,-135.719 -138.091,-135.719c-75.368,0 -136.728,60.456 -138.077,135.47l-0,260.073l-46.083,-0l-0,-254.796l-0.128,-2.53l0.128,-2.531l-0,-3.904l0.197,-0c3.184,-98.741 84.408,-177.854 183.963,-177.854c99.556,0 180.779,79.113 183.964,177.854l0.21,-0l-0,4.154l0.115,2.281l-0.115,2.281l-0,255.045l-46.083,-0l-0,-259.824Z"/></g><g id="Letter-T-Copy" serif:id="Letter T Copy"><path d="M5600.68,1158.01c0,0 -0.001,0 -0.001,0c-9.551,-15.861 -14.997,-34.319 -15.052,-53.997l0,-468.294l55.992,0l0,144.192l108.08,0l0,55.992l-108.08,0l0,268.15c0.2,29.298 22.151,53.077 52.047,53.893l0.998,0.019l55.004,-0l-0,54.402l-55.004,-0c-19.298,-0.406 -37.39,-5.609 -53.045,-14.485c-17.009,-9.512 -31.153,-23.311 -40.939,-39.872Z"/></g></svg>